<?xml version="1.0" encoding="UTF-8" standalone="no"?>
<!-- Created with Inkscape (http://www.inkscape.org/) -->

<svg
   xmlns:dc="http://purl.org/dc/elements/1.1/"
   xmlns:cc="http://creativecommons.org/ns#"
   xmlns:rdf="http://www.w3.org/1999/02/22-rdf-syntax-ns#"
   xmlns:svg="http://www.w3.org/2000/svg"
   xmlns="http://www.w3.org/2000/svg"
   xmlns:sodipodi="http://sodipodi.sourceforge.net/DTD/sodipodi-0.dtd"
   xmlns:inkscape="http://www.inkscape.org/namespaces/inkscape"
   width="309.74448mm"
   height="74.714699mm"
   viewBox="0 0 309.74448 74.714699"
   version="1.1"
   id="svg8"
   inkscape:version="0.92.2 5c3e80d, 2017-08-06"
   sodipodi:docname="drawing.svg">
  <defs
     id="defs2" />
  <sodipodi:namedview
     id="base"
     pagecolor="#ffffff"
     bordercolor="#666666"
     borderopacity="1.0"
     inkscape:pageopacity="0.0"
     inkscape:pageshadow="2"
     inkscape:zoom="0.35"
     inkscape:cx="644.38455"
     inkscape:cy="150.67287"
     inkscape:document-units="mm"
     inkscape:current-layer="layer1"
     showgrid="false"
     fit-margin-top="0"
     fit-margin-left="0"
     fit-margin-right="0"
     fit-margin-bottom="0"
     inkscape:window-width="1440"
     inkscape:window-height="757"
     inkscape:window-x="0"
     inkscape:window-y="1"
     inkscape:window-maximized="1" />
  <metadata
     id="metadata5">
    <rdf:RDF>
      <cc:Work
         rdf:about="">
        <dc:format>image/svg+xml</dc:format>
        <dc:type
           rdf:resource="http://purl.org/dc/dcmitype/StillImage" />
        <dc:title></dc:title>
      </cc:Work>
    </rdf:RDF>
  </metadata>
  <g
     inkscape:label="Layer 1"
     inkscape:groupmode="layer"
     id="layer1"
     transform="translate(280.45889,-104.30336)">
    <g
       id="g1319">
      <path
         inkscape:connector-curvature="0"
         id="path977"
         d="m -263.73287,178.21812 c -7.16864,-1.02292 -13.23235,-6.09433 -15.46968,-12.93811 -0.92561,-2.83139 -1.4037,-6.65364 -1.21603,-9.72208 0.50719,-8.29292 4.22796,-14.55255 10.47375,-17.62052 3.96332,-1.9468 5.0783,-2.15844 11.37134,-2.15844 5.89748,0 8.44161,0.3742 10.8647,1.59802 1.50335,0.75929 3.02259,2.41099 3.44105,3.74106 0.17492,0.55601 0.37345,3.00522 0.44116,5.44269 l 0.12311,4.43177 h -1.21226 c -1.04679,0 -1.22792,-0.0813 -1.32697,-0.59531 -0.56308,-2.92221 -0.82665,-3.82872 -1.51204,-5.2003 -1.02886,-2.05892 -3.40933,-4.27702 -5.45179,-5.07992 -1.23309,-0.48473 -2.07037,-0.60478 -4.30863,-0.61775 -2.51599,-0.0146 -2.91854,0.0529 -4.26628,0.71473 -2.96744,1.45728 -5.25075,4.89648 -6.18986,9.32334 -0.24696,1.16417 -0.51137,3.79225 -0.58758,5.84018 -0.3609,9.69833 1.8868,16.03378 6.48697,18.28443 1.17396,0.57437 1.95064,0.74274 3.84362,0.83325 4.61428,0.22061 7.2042,-0.8731 10.95202,-4.625 l 2.43368,-2.43633 1.20971,0.92369 1.20972,0.92369 -0.4684,0.82586 c -0.25761,0.45422 -1.4445,1.82078 -2.63753,3.03679 -1.84155,1.87702 -2.54163,2.38737 -4.63559,3.37929 -3.78583,1.79337 -8.63415,2.39903 -13.56819,1.69497 z m 46.0375,0.1197 c -6.47476,-1.03983 -11.59729,-4.78089 -14.43795,-10.54427 -1.44182,-2.92529 -2.10836,-5.71551 -2.27535,-9.525 -0.42589,-9.71578 3.28513,-17.31333 10.08808,-20.65326 3.43697,-1.68739 5.1624,-2.06823 9.27106,-2.0463 4.11345,0.0219 6.57242,0.57654 9.85149,2.22189 5.73271,2.87653 8.9738,8.01057 9.27059,14.68502 0.0719,1.61623 0.0469,3.60943 -0.0556,4.42933 l -0.18625,1.49074 -13.27658,0.0686 -13.27658,0.0686 0.0847,2.51354 c 0.18107,5.37247 1.53324,9.22661 4.02207,11.46429 1.68423,1.51427 3.1989,2.02946 5.96665,2.02946 4.38487,0 7.67745,-1.76407 11.27528,-6.04097 l 0.9642,-1.14617 1.3294,0.99249 1.32941,0.9925 -0.84419,1.18051 c -2.59017,3.62206 -6.25229,6.23685 -10.32652,7.37322 -1.37259,0.38285 -7.29293,0.68367 -8.77393,0.44582 z m 9.84272,-26.88229 c -0.30006,-6.09468 -1.81898,-9.98069 -4.41876,-11.30498 -3.10575,-1.58202 -6.68892,-0.3461 -8.31482,2.86799 -1.27952,2.52936 -2.26691,7.35369 -2.26829,11.08282 l -2.2e-4,0.59532 h 7.58083 7.58084 z m 20.45207,-2.8847 v -29.14459 l 2.89816,0.16582 c 3.99725,0.22871 5.16396,0.56396 6.40187,1.83953 2.03338,2.09526 1.93047,0.56251 2.01579,30.02394 l 0.076,26.25989 h -5.69594 -5.69593 z m 22.92726,26.96178 c -0.0934,-1.20055 -0.17063,-14.29742 -0.17151,-29.10416 l -0.002,-26.92136 1.65365,0.008 c 2.65625,0.0131 5.45851,0.46939 6.509,1.05979 1.09708,0.6166 2.00322,1.81028 2.64688,3.48684 0.39149,1.01974 0.44289,3.77437 0.51111,27.39364 l 0.0759,26.25989 h -5.52674 -5.52674 z"
         style="fill:#61a60e;fill-opacity:1;stroke-width:0.26458332" />
      <path
         inkscape:connector-curvature="0"
         id="path1044"
         d="m -75.882357,178.76101 c -3.914571,-0.7491 -7.226729,-2.53514 -9.891461,-5.33384 -3.03208,-3.18451 -4.890939,-6.9413 -5.590974,-11.29945 -0.470305,-2.92792 -0.202377,-8.97496 0.518697,-11.70689 1.433542,-5.43125 4.842605,-9.83984 9.27885,-11.99939 3.364579,-1.63786 5.073605,-2.00707 9.260417,-2.00056 4.317886,0.007 6.265399,0.43058 9.752001,2.12245 1.976009,0.95886 2.895023,1.61438 4.551328,3.24639 3.984768,3.92631 5.490067,8.81311 4.838822,15.70872 l -0.168672,1.78593 h -13.323197 c -7.327759,0 -13.32218,0.0893 -13.320937,0.19844 0.01741,1.52691 0.635416,6.62815 0.951527,7.85427 0.910261,3.53072 3.274808,6.52643 5.841753,7.40107 1.521773,0.51852 4.758034,0.54407 6.605553,0.0521 2.326847,-0.61954 4.085789,-1.76406 6.648527,-4.32609 l 2.45483,-2.45414 1.172872,0.86267 c 0.645078,0.47447 1.177515,0.98489 1.18319,1.13427 0.01834,0.48262 -2.884757,3.92196 -4.301842,5.09645 -1.541631,1.27772 -4.566266,2.83311 -6.627164,3.40797 -1.948304,0.54346 -7.554875,0.68575 -9.83412,0.24958 z m 10.983862,-24.97368 c 0,-4.10366 -1.033778,-8.77621 -2.426116,-10.96576 -1.937781,-3.04729 -5.957382,-3.67111 -8.673628,-1.34611 -1.295292,1.10872 -2.192769,2.77862 -2.915063,5.42395 -0.528413,1.93524 -1.176655,7.75925 -0.911416,8.18842 0.07743,0.12528 3.46751,0.22779 7.533505,0.22779 h 7.392718 z m -73.607775,7.41527 c -0.0728,-15.83984 -0.11466,-17.21158 -0.55574,-18.1901 -0.96243,-2.13511 -2.4222,-3.19252 -4.79182,-3.47102 l -1.478,-0.17371 v -1.1542 -1.1542 h 5.7737 c 6.67163,0 7.67978,0.20638 9.33377,1.9107 l 1.01155,1.04234 0.88845,-0.67765 c 1.36249,-1.03923 4.09005,-2.18241 6.42027,-2.69089 2.78701,-0.60815 8.50933,-0.62369 11.19698,-0.0304 5.34952,1.18086 8.74558,4.27006 10.25005,9.32387 0.41923,1.40827 0.478398,3.18791 0.564673,16.98508 l 0.09637,15.41198 h -5.702283 -5.70228 V 163.441 c 0,-15.70835 -0.0452,-16.38977 -1.25564,-18.94066 -0.62532,-1.31774 -2.2789,-2.8945 -3.73197,-3.55858 -0.97886,-0.44735 -1.74347,-0.5622 -3.74364,-0.56232 -2.813,-1.6e-4 -4.42715,0.43071 -6.47218,1.72763 -1.18532,0.7517 -1.24602,0.84582 -1.06112,1.64512 0.10787,0.4663 0.24537,8.43804 0.30555,17.715 l 0.10942,16.86719 h -5.68871 -5.68871 z m 88.953608,17.00008 c 0,-0.0724 3.281666,-4.19388 7.292594,-9.15876 4.169084,-5.16066 7.234068,-9.17958 7.155952,-9.38315 -0.07516,-0.19584 -2.246783,-3.90276 -4.825841,-8.23759 -5.690685,-9.56479 -7.235063,-11.33245 -11.011768,-12.60383 -0.304866,-0.10263 -0.463021,-0.42983 -0.463021,-0.95792 v -0.80206 h 5.103786 c 5.890448,0 7.498744,0.2924 9.633154,1.75137 1.903926,1.30142 3.466997,3.29405 6.097839,7.77363 1.239223,2.11006 2.392941,3.98758 2.56382,4.17228 0.244361,0.26413 1.521965,-1.1586 5.98469,-6.66451 l 5.674002,-7.00032 3.017571,-0.0162 c 2.852353,-0.0153 2.995408,0.009 2.612815,0.4468 -2.071084,2.36924 -14.47076,17.8858 -14.398415,18.01773 0.05198,0.0948 2.224653,3.74316 4.828151,8.10746 5.464587,9.16042 6.914226,10.968 9.932849,12.3855 1.5990283,0.75088 1.8023473,0.93042 1.8069987,1.59569 l 0.00524,0.74961 -5.8936387,-0.0881 -5.893639,-0.0882 -1.764252,-0.86908 c -2.46561,-1.21457 -4.290414,-3.31739 -7.482845,-8.62287 -1.455208,-2.4184 -2.705365,-4.3917 -2.778125,-4.38511 -0.07276,0.007 -2.688299,3.16139 -5.812308,7.01067 l -5.680017,6.99868 h -2.852796 c -1.569037,0 -2.852795,-0.0593 -2.852795,-0.1317 z"
         style="fill:#415364;fill-opacity:1;stroke-width:0.26458332" />
      <path
         inkscape:connector-curvature="0"
         id="path1178"
         d="m 1.511936,143.75482 -0.66145836,-0.19378 0.0974646,-2.94243 c 0.17023286,-5.13925 -0.89974737,-7.95607 -4.30220434,-11.32595 -2.3596468,-2.33705 -5.1212379,-3.91827 -8.3629689,-4.78843 -1.719226,-0.46148 -5.723294,-0.59378 -10.241773,-0.33841 -1.492898,0.0844 -1.998883,0.0166 -2.328383,-0.3118 -0.354578,-0.35341 -0.363608,-0.46722 -0.05725,-0.72148 1.198991,-0.99507 10.323714,-1.73381 14.115044,-1.14275 9.77159198,1.52337 16.8310059,9.5203 16.1540166,18.29933 -0.084839,1.10015 -0.2279412,2.19231 -0.318008,2.42702 -0.2992623,0.77987 -2.8067079,1.41595 -4.0944826,1.03868 z"
         style="fill:#0099a8;fill-opacity:1;stroke-width:0.26458335" />
      <path
         inkscape:connector-curvature="0"
         id="path1245"
         d="m 14.592454,142.893 c -0.154519,-0.10691 -0.436959,-0.90876 -0.627647,-1.78188 C 11.224179,128.56229 1.0823347,118.41806 -11.320356,115.82 c -2.590855,-0.54272 -8.781428,-0.68211 -10.980208,-0.24723 -2.161945,0.42758 -2.972776,-0.14134 -1.785937,-1.25312 0.905707,-0.84843 1.728704,-1.06821 5.342078,-1.42665 8.8635759,-0.87923 18.49743544,1.84631 25.4294314,7.19431 0.7640584,0.58946 2.391611,2.1116 3.6167826,3.38252 4.27845,4.43822 6.937743,9.27822 8.420476,15.32555 0.573455,2.33884 0.579398,2.46943 0.134712,2.9608 -0.811376,0.89656 -3.554796,1.62789 -4.264525,1.13682 z"
         style="fill:#61a60e;fill-opacity:1;stroke-width:0.26458335" />
      <path
         inkscape:connector-curvature="0"
         id="path1312"
         d="m 24.410676,140.67784 c -0.05687,-0.1819 -0.246327,-0.98557 -0.42101,-1.78594 -4.199803,-19.24255 -21.7722424,-33.33533 -40.469397,-32.45573 -1.81901,0.0856 -4.061545,0.29387 -4.983412,0.46289 -3.365923,0.61711 -4.171022,-1.13418 -0.848932,-1.84664 2.537256,-0.54414 7.551516,-0.87688 10.585315,-0.70243 11.73467467,0.6748 21.5324229,4.95131 29.388423,12.82744 5.686118,5.70068 9.1694,11.76258 11.096855,19.31168 0.776031,3.03942 0.728369,3.5735 -0.365215,4.09244 -1.084818,0.51478 -3.831029,0.58118 -3.982627,0.0963 z"
         style="fill:#415364;fill-opacity:1;stroke-width:0.26458335" />
    </g>
  </g>
</svg>
